<mxfile host="app.diagrams.net" modified="2022-06-05T18:34:50.103Z" agent="5.0 (Macintosh; Intel Mac OS X 10_15_7) AppleWebKit/537.36 (KHTML, like Gecko) Chrome/102.0.0.0 Safari/537.36" etag="aWrgLYcF32OrAD_9s6T5" version="18.1.2" type="github">
  <diagram id="8ezUoRBkV2JyPJgWNUvR" name="Page-1">
    <mxGraphModel dx="2026" dy="1022" grid="0" gridSize="10" guides="1" tooltips="1" connect="1" arrows="1" fold="1" page="0" pageScale="1" pageWidth="850" pageHeight="1100" background="#D4E1F5" math="0" shadow="0">
      <root>
        <mxCell id="0" />
        <mxCell id="1" parent="0" />
        <mxCell id="CTZkDhREckl4c0SX3sOf-15" style="edgeStyle=orthogonalEdgeStyle;rounded=0;orthogonalLoop=1;jettySize=auto;html=1;entryX=0.5;entryY=0;entryDx=0;entryDy=0;entryPerimeter=0;strokeColor=#00FF00;fillColor=#76608a;strokeWidth=2;sketch=0;exitX=0.5;exitY=0;exitDx=0;exitDy=0;exitPerimeter=0;" parent="1" source="CTZkDhREckl4c0SX3sOf-6" target="CTZkDhREckl4c0SX3sOf-8" edge="1">
          <mxGeometry relative="1" as="geometry">
            <mxPoint x="140" y="250" as="sourcePoint" />
            <Array as="points">
              <mxPoint x="-110" y="240" />
              <mxPoint x="-110" y="240" />
            </Array>
          </mxGeometry>
        </mxCell>
        <mxCell id="CTZkDhREckl4c0SX3sOf-19" value="can call" style="edgeLabel;html=1;align=center;verticalAlign=middle;resizable=0;points=[];horizontal=0;labelBackgroundColor=none;" parent="CTZkDhREckl4c0SX3sOf-15" vertex="1" connectable="0">
          <mxGeometry x="0.0313" y="-3" relative="1" as="geometry">
            <mxPoint x="13" y="32" as="offset" />
          </mxGeometry>
        </mxCell>
        <mxCell id="CTZkDhREckl4c0SX3sOf-99" style="edgeStyle=orthogonalEdgeStyle;rounded=0;sketch=0;orthogonalLoop=1;jettySize=auto;html=1;endArrow=classic;endFill=1;strokeColor=#B20000;strokeWidth=2;entryX=0;entryY=0.5;entryDx=0;entryDy=0;entryPerimeter=0;fillColor=#e51400;dashed=1;dashPattern=1 1;startArrow=classic;startFill=1;exitX=0.5;exitY=0;exitDx=0;exitDy=0;exitPerimeter=0;" parent="1" source="CTZkDhREckl4c0SX3sOf-6" target="CTZkDhREckl4c0SX3sOf-6" edge="1">
          <mxGeometry relative="1" as="geometry">
            <mxPoint x="220" y="200" as="targetPoint" />
            <Array as="points">
              <mxPoint x="-110" y="60" />
              <mxPoint x="-200" y="60" />
              <mxPoint x="-200" y="125" />
            </Array>
          </mxGeometry>
        </mxCell>
        <mxCell id="CTZkDhREckl4c0SX3sOf-100" value="can call&lt;br&gt;(should avoid)" style="edgeLabel;html=1;align=center;verticalAlign=middle;resizable=0;points=[];labelBackgroundColor=none;" parent="CTZkDhREckl4c0SX3sOf-99" vertex="1" connectable="0">
          <mxGeometry x="-0.3433" y="-1" relative="1" as="geometry">
            <mxPoint y="-21" as="offset" />
          </mxGeometry>
        </mxCell>
        <mxCell id="CTZkDhREckl4c0SX3sOf-6" value="Tasks" style="html=1;strokeColor=none;fillColor=#0079D6;labelPosition=center;verticalLabelPosition=middle;verticalAlign=top;align=center;fontSize=12;outlineConnect=0;spacingTop=-6;fontColor=#FFFFFF;sketch=0;shape=mxgraph.sitemap.services;dashed=1;" parent="1" vertex="1">
          <mxGeometry x="-170" y="90" width="120" height="70" as="geometry" />
        </mxCell>
        <mxCell id="CTZkDhREckl4c0SX3sOf-14" style="edgeStyle=orthogonalEdgeStyle;rounded=0;orthogonalLoop=1;jettySize=auto;html=1;strokeColor=#00FF00;fillColor=#76608a;strokeWidth=2;sketch=0;" parent="1" source="CTZkDhREckl4c0SX3sOf-8" target="CTZkDhREckl4c0SX3sOf-6" edge="1">
          <mxGeometry relative="1" as="geometry">
            <Array as="points">
              <mxPoint x="30" y="295" />
              <mxPoint x="30" y="125" />
            </Array>
          </mxGeometry>
        </mxCell>
        <mxCell id="CTZkDhREckl4c0SX3sOf-17" value="can call" style="edgeLabel;html=1;align=left;verticalAlign=top;resizable=0;points=[];labelPosition=right;verticalLabelPosition=top;horizontal=0;labelBackgroundColor=none;" parent="CTZkDhREckl4c0SX3sOf-14" vertex="1" connectable="0">
          <mxGeometry x="0.1" y="-3" relative="1" as="geometry">
            <mxPoint x="-3" y="33" as="offset" />
          </mxGeometry>
        </mxCell>
        <mxCell id="CTZkDhREckl4c0SX3sOf-20" style="edgeStyle=orthogonalEdgeStyle;rounded=0;orthogonalLoop=1;jettySize=auto;html=1;entryX=0.5;entryY=1;entryDx=0;entryDy=0;entryPerimeter=0;strokeColor=#B09500;fillColor=#e3c800;strokeWidth=2;sketch=0;" parent="1" source="CTZkDhREckl4c0SX3sOf-8" target="CTZkDhREckl4c0SX3sOf-11" edge="1">
          <mxGeometry relative="1" as="geometry">
            <Array as="points">
              <mxPoint x="-110" y="390" />
              <mxPoint x="-350" y="390" />
            </Array>
          </mxGeometry>
        </mxCell>
        <mxCell id="CTZkDhREckl4c0SX3sOf-21" value="returns:&lt;br&gt;&amp;nbsp; &amp;nbsp; &amp;nbsp;dataclass&lt;br&gt;&amp;nbsp; &amp;nbsp; &amp;nbsp;exception&lt;br&gt;&amp;nbsp; &amp;nbsp; &amp;nbsp;error&lt;br&gt;&amp;nbsp; &amp;nbsp; &amp;nbsp;..." style="edgeLabel;html=1;align=left;verticalAlign=middle;resizable=0;points=[];labelBackgroundColor=none;" parent="CTZkDhREckl4c0SX3sOf-20" vertex="1" connectable="0">
          <mxGeometry x="-0.1722" relative="1" as="geometry">
            <mxPoint x="-71" y="40" as="offset" />
          </mxGeometry>
        </mxCell>
        <mxCell id="CTZkDhREckl4c0SX3sOf-29" style="edgeStyle=orthogonalEdgeStyle;rounded=0;sketch=0;orthogonalLoop=1;jettySize=auto;html=1;exitX=1;exitY=0.75;exitDx=0;exitDy=0;exitPerimeter=0;entryX=0.25;entryY=0;entryDx=0;entryDy=0;entryPerimeter=0;strokeColor=#00FF00;strokeWidth=2;fillColor=#76608a;" parent="1" source="CTZkDhREckl4c0SX3sOf-8" target="CTZkDhREckl4c0SX3sOf-28" edge="1">
          <mxGeometry relative="1" as="geometry">
            <Array as="points">
              <mxPoint x="30" y="313" />
            </Array>
          </mxGeometry>
        </mxCell>
        <mxCell id="CTZkDhREckl4c0SX3sOf-107" value="can call" style="edgeLabel;html=1;align=center;verticalAlign=middle;resizable=0;points=[];horizontal=0;labelBackgroundColor=none;" parent="CTZkDhREckl4c0SX3sOf-29" vertex="1" connectable="0">
          <mxGeometry x="0.0606" y="1" relative="1" as="geometry">
            <mxPoint x="9" y="33" as="offset" />
          </mxGeometry>
        </mxCell>
        <mxCell id="CTZkDhREckl4c0SX3sOf-8" value="Services" style="html=1;strokeColor=#2D7600;fillColor=#60a917;labelPosition=center;verticalLabelPosition=middle;verticalAlign=top;align=center;fontSize=12;outlineConnect=0;spacingTop=-6;fontColor=#ffffff;sketch=0;shape=mxgraph.sitemap.services;" parent="1" vertex="1">
          <mxGeometry x="-170" y="260" width="120" height="70" as="geometry" />
        </mxCell>
        <mxCell id="CTZkDhREckl4c0SX3sOf-13" style="edgeStyle=orthogonalEdgeStyle;rounded=0;orthogonalLoop=1;jettySize=auto;html=1;fillColor=#76608a;strokeColor=#00FF00;strokeWidth=2;sketch=0;" parent="1" source="CTZkDhREckl4c0SX3sOf-11" target="CTZkDhREckl4c0SX3sOf-8" edge="1">
          <mxGeometry relative="1" as="geometry" />
        </mxCell>
        <mxCell id="CTZkDhREckl4c0SX3sOf-16" value="can call" style="edgeLabel;html=1;align=center;verticalAlign=middle;resizable=0;points=[];labelBackgroundColor=none;" parent="CTZkDhREckl4c0SX3sOf-13" vertex="1" connectable="0">
          <mxGeometry x="-0.2833" y="4" relative="1" as="geometry">
            <mxPoint x="17" y="-11" as="offset" />
          </mxGeometry>
        </mxCell>
        <mxCell id="CTZkDhREckl4c0SX3sOf-23" style="edgeStyle=orthogonalEdgeStyle;rounded=0;orthogonalLoop=1;jettySize=auto;html=1;entryX=0.25;entryY=1;entryDx=0;entryDy=0;entryPerimeter=0;exitX=0.25;exitY=0;exitDx=0;exitDy=0;exitPerimeter=0;strokeColor=#00FF00;fillColor=#76608a;strokeWidth=2;sketch=0;" parent="1" source="CTZkDhREckl4c0SX3sOf-11" target="CTZkDhREckl4c0SX3sOf-22" edge="1">
          <mxGeometry relative="1" as="geometry" />
        </mxCell>
        <mxCell id="CTZkDhREckl4c0SX3sOf-11" value="Views" style="html=1;strokeColor=#2D7600;fillColor=#60a917;labelPosition=center;verticalLabelPosition=middle;verticalAlign=top;align=center;fontSize=12;outlineConnect=0;spacingTop=-6;fontColor=#ffffff;sketch=0;shape=mxgraph.sitemap.services;" parent="1" vertex="1">
          <mxGeometry x="-410" y="260" width="120" height="70" as="geometry" />
        </mxCell>
        <mxCell id="CTZkDhREckl4c0SX3sOf-24" style="edgeStyle=orthogonalEdgeStyle;rounded=0;orthogonalLoop=1;jettySize=auto;html=1;exitX=0.75;exitY=1;exitDx=0;exitDy=0;exitPerimeter=0;entryX=0.75;entryY=0;entryDx=0;entryDy=0;entryPerimeter=0;strokeColor=#B09500;fillColor=#e3c800;strokeWidth=2;sketch=0;" parent="1" source="CTZkDhREckl4c0SX3sOf-22" target="CTZkDhREckl4c0SX3sOf-11" edge="1">
          <mxGeometry relative="1" as="geometry" />
        </mxCell>
        <mxCell id="CTZkDhREckl4c0SX3sOf-22" value="&lt;font color=&quot;#ffffff&quot;&gt;Serializer&lt;/font&gt;" style="html=1;strokeColor=#BD7000;fillColor=#f0a30a;labelPosition=center;verticalLabelPosition=middle;verticalAlign=top;align=center;fontSize=12;outlineConnect=0;spacingTop=-6;fontColor=#000000;sketch=0;shape=mxgraph.sitemap.services;" parent="1" vertex="1">
          <mxGeometry x="-410" y="110" width="120" height="70" as="geometry" />
        </mxCell>
        <mxCell id="CTZkDhREckl4c0SX3sOf-27" style="edgeStyle=orthogonalEdgeStyle;rounded=0;orthogonalLoop=1;jettySize=auto;html=1;startArrow=classic;startFill=1;" parent="1" source="CTZkDhREckl4c0SX3sOf-26" target="CTZkDhREckl4c0SX3sOf-11" edge="1">
          <mxGeometry relative="1" as="geometry" />
        </mxCell>
        <mxCell id="CTZkDhREckl4c0SX3sOf-104" value="http request&lt;br&gt;http response" style="edgeLabel;html=1;align=center;verticalAlign=middle;resizable=0;points=[];labelBackgroundColor=none;" parent="CTZkDhREckl4c0SX3sOf-27" vertex="1" connectable="0">
          <mxGeometry x="0.3528" relative="1" as="geometry">
            <mxPoint x="-26" y="15" as="offset" />
          </mxGeometry>
        </mxCell>
        <mxCell id="CTZkDhREckl4c0SX3sOf-26" value="" style="outlineConnect=0;dashed=0;verticalLabelPosition=bottom;verticalAlign=top;align=center;html=1;shape=mxgraph.aws3.http_protocol;fillColor=#5294CF;gradientColor=none;" parent="1" vertex="1">
          <mxGeometry x="-610" y="262" width="63" height="66" as="geometry" />
        </mxCell>
        <mxCell id="CTZkDhREckl4c0SX3sOf-101" style="edgeStyle=orthogonalEdgeStyle;rounded=0;sketch=0;orthogonalLoop=1;jettySize=auto;html=1;dashed=1;dashPattern=1 4;startArrow=classic;startFill=1;endArrow=classic;endFill=1;strokeColor=#0000FF;strokeWidth=1;entryX=0;entryY=0.5;entryDx=0;entryDy=0;entryPerimeter=0;exitX=1;exitY=0.5;exitDx=0;exitDy=0;exitPerimeter=0;" parent="1" source="CTZkDhREckl4c0SX3sOf-28" target="CTZkDhREckl4c0SX3sOf-86" edge="1">
          <mxGeometry relative="1" as="geometry">
            <mxPoint x="140" y="460" as="sourcePoint" />
            <mxPoint x="560" y="460" as="targetPoint" />
            <Array as="points">
              <mxPoint x="130" y="445" />
              <mxPoint x="130" y="445" />
            </Array>
          </mxGeometry>
        </mxCell>
        <mxCell id="CTZkDhREckl4c0SX3sOf-102" value="Convert data on&lt;br&gt;Python DataClass" style="edgeLabel;html=1;align=center;verticalAlign=middle;resizable=0;points=[];labelBackgroundColor=none;" parent="CTZkDhREckl4c0SX3sOf-101" vertex="1" connectable="0">
          <mxGeometry x="-0.3552" y="1" relative="1" as="geometry">
            <mxPoint x="25" y="19" as="offset" />
          </mxGeometry>
        </mxCell>
        <mxCell id="CTZkDhREckl4c0SX3sOf-105" style="edgeStyle=orthogonalEdgeStyle;rounded=0;sketch=0;orthogonalLoop=1;jettySize=auto;html=1;startArrow=classic;startFill=1;endArrow=classic;endFill=1;strokeColor=#000000;strokeWidth=1;exitX=0.75;exitY=0;exitDx=0;exitDy=0;exitPerimeter=0;entryX=0.067;entryY=0.992;entryDx=0;entryDy=0;entryPerimeter=0;" parent="1" source="CTZkDhREckl4c0SX3sOf-28" target="CTZkDhREckl4c0SX3sOf-94" edge="1">
          <mxGeometry relative="1" as="geometry">
            <mxPoint x="119" y="230" as="targetPoint" />
            <Array as="points">
              <mxPoint x="90" y="230" />
              <mxPoint x="91" y="230" />
            </Array>
          </mxGeometry>
        </mxCell>
        <mxCell id="CTZkDhREckl4c0SX3sOf-106" value="get / set / delete data" style="edgeLabel;html=1;align=center;verticalAlign=middle;resizable=0;points=[];horizontal=0;labelBackgroundColor=none;" parent="CTZkDhREckl4c0SX3sOf-105" vertex="1" connectable="0">
          <mxGeometry x="0.53" y="-2" relative="1" as="geometry">
            <mxPoint x="8" y="53" as="offset" />
          </mxGeometry>
        </mxCell>
        <mxCell id="CTZkDhREckl4c0SX3sOf-28" value="Providers" style="html=1;strokeColor=#B20000;fillColor=#e51400;labelPosition=center;verticalLabelPosition=middle;verticalAlign=top;align=center;fontSize=12;outlineConnect=0;spacingTop=-6;fontColor=#ffffff;sketch=0;shape=mxgraph.sitemap.services;" parent="1" vertex="1">
          <mxGeometry y="410" width="120" height="70" as="geometry" />
        </mxCell>
        <mxCell id="CTZkDhREckl4c0SX3sOf-86" value="Dataclass" style="html=1;strokeColor=#3700CC;fillColor=#6a00ff;labelPosition=center;verticalLabelPosition=middle;verticalAlign=top;align=center;fontSize=12;outlineConnect=0;spacingTop=-6;sketch=0;shape=mxgraph.sitemap.services;fontColor=#ffffff;" parent="1" vertex="1">
          <mxGeometry x="260" y="410" width="120" height="70" as="geometry" />
        </mxCell>
        <mxCell id="CTZkDhREckl4c0SX3sOf-94" value="Any Data Source" style="swimlane;horizontal=0;" parent="1" vertex="1">
          <mxGeometry x="70" y="60" width="310" height="160" as="geometry" />
        </mxCell>
        <mxCell id="CTZkDhREckl4c0SX3sOf-96" value="Redis" style="sketch=0;aspect=fixed;html=1;points=[];align=center;image;fontSize=12;image=img/lib/mscae/Cache_Redis_Product.svg;" parent="CTZkDhREckl4c0SX3sOf-94" vertex="1">
          <mxGeometry x="40.89" y="100" width="35.71" height="30" as="geometry" />
        </mxCell>
        <mxCell id="CTZkDhREckl4c0SX3sOf-97" value="Amazon RDS" style="sketch=0;outlineConnect=0;fontColor=#232F3E;gradientColor=none;strokeColor=#ffffff;fillColor=#232F3E;dashed=0;verticalLabelPosition=middle;verticalAlign=bottom;align=center;html=1;whiteSpace=wrap;fontSize=10;fontStyle=1;spacing=3;shape=mxgraph.aws4.productIcon;prIcon=mxgraph.aws4.rds;labelBackgroundColor=none;" parent="CTZkDhREckl4c0SX3sOf-94" vertex="1">
          <mxGeometry x="38.75" y="10" width="40" height="70" as="geometry" />
        </mxCell>
        <mxCell id="CTZkDhREckl4c0SX3sOf-95" value="Amazon SQS" style="sketch=0;outlineConnect=0;fontColor=#232F3E;gradientColor=none;strokeColor=#ffffff;fillColor=#232F3E;dashed=0;verticalLabelPosition=middle;verticalAlign=bottom;align=center;html=1;whiteSpace=wrap;fontSize=10;fontStyle=1;spacing=3;shape=mxgraph.aws4.productIcon;prIcon=mxgraph.aws4.sqs;" parent="CTZkDhREckl4c0SX3sOf-94" vertex="1">
          <mxGeometry x="140" y="10" width="40" height="70" as="geometry" />
        </mxCell>
        <mxCell id="CTZkDhREckl4c0SX3sOf-98" value="External&#xa;API" style="editableCssRules=.*;shape=image;verticalLabelPosition=bottom;labelBackgroundColor=none;verticalAlign=top;aspect=fixed;imageAspect=0;image=data:image/svg+xml,PHN2ZyB4bWxucz0iaHR0cDovL3d3dy53My5vcmcvMjAwMC9zdmciIHhtbG5zOnY9Imh0dHBzOi8vdmVjdGEuaW8vbmFubyIgd2lkdGg9IjE5Ljk1MDAwMDc2MjkzOTQ1MyIgaGVpZ2h0PSIxMiIgdmlld0JveD0iMCAwIDE5Ljk1MDAwMDc2MjkzOTQ1MyAxMiI+JiN4YTsJPHN0eWxlIHR5cGU9InRleHQvY3NzIj4mI3hhOwkuc3Qwe2ZpbGw6IzQyODVmNH0mI3hhOwkuc3Qxe2ZpbGw6I2FlY2JmYX0mI3hhOwk8L3N0eWxlPiYjeGE7CTxwYXRoIGNsYXNzPSJzdDAiIGQ9Ik02IDZsMSAyaDZsMS0yLTEtMkg3eiIgZmlsbD0iIzQyODVmNCIvPiYjeGE7CTxwYXRoIGNsYXNzPSJzdDEiIGQ9Ik03LjUxIDRIN0w2IDZoOGwtMS0yeiIgZmlsbD0iI2FlY2JmYSIvPiYjeGE7CTxwYXRoIGNsYXNzPSJzdDAiIGQ9Ik0xNi45NyA2bDEuNS0yLjI1TDE2IDBoLTN6IiBmaWxsPSIjNDI4NWY0Ii8+JiN4YTsJPHBhdGggY2xhc3M9InN0MSIgZD0iTTE2Ljk3IDZoMEwxMyAxMmgzbDMuOTUtNi0xLjQ4LTIuMjV6IiBmaWxsPSIjYWVjYmZhIi8+JiN4YTsJPHBhdGggY2xhc3M9InN0MCIgZD0iTTIuOTggNmwtMS41IDIuMjVMMy45NSAxMmgzeiIgZmlsbD0iIzQyODVmNCIvPiYjeGE7CTxwYXRoIGNsYXNzPSJzdDEiIGQ9Ik0yLjk4IDZoMGwzLjk3LTZoLTNMMCA2bDEuNDggMi4yNXoiIGZpbGw9IiNhZWNiZmEiLz4mI3hhOzwvc3ZnPg==;" parent="CTZkDhREckl4c0SX3sOf-94" vertex="1">
          <mxGeometry x="143.34000000000003" y="100" width="33.33" height="20" as="geometry" />
        </mxCell>
        <mxCell id="CTZkDhREckl4c0SX3sOf-108" style="edgeStyle=orthogonalEdgeStyle;rounded=0;orthogonalLoop=1;jettySize=auto;html=1;entryX=0.75;entryY=1;entryDx=0;entryDy=0;entryPerimeter=0;strokeColor=#B09500;fillColor=#e3c800;strokeWidth=2;sketch=0;exitX=0;exitY=0.5;exitDx=0;exitDy=0;exitPerimeter=0;" parent="1" source="CTZkDhREckl4c0SX3sOf-28" target="CTZkDhREckl4c0SX3sOf-8" edge="1">
          <mxGeometry relative="1" as="geometry">
            <mxPoint x="40" y="490" as="sourcePoint" />
            <mxPoint x="-200" y="490" as="targetPoint" />
            <Array as="points">
              <mxPoint x="-80" y="445" />
            </Array>
          </mxGeometry>
        </mxCell>
        <mxCell id="CTZkDhREckl4c0SX3sOf-109" value="returns:&lt;br&gt;&amp;nbsp; &amp;nbsp; &amp;nbsp;dataclass&lt;br&gt;&amp;nbsp; &amp;nbsp; &amp;nbsp;exception&lt;br&gt;&amp;nbsp; &amp;nbsp; &amp;nbsp;error&lt;br&gt;&amp;nbsp; &amp;nbsp; &amp;nbsp;..." style="edgeLabel;html=1;align=left;verticalAlign=middle;resizable=0;points=[];labelBackgroundColor=none;" parent="CTZkDhREckl4c0SX3sOf-108" vertex="1" connectable="0">
          <mxGeometry x="-0.1722" relative="1" as="geometry">
            <mxPoint y="40" as="offset" />
          </mxGeometry>
        </mxCell>
      </root>
    </mxGraphModel>
  </diagram>
</mxfile>
